<?xml version="1.0" encoding="UTF-8"?><svg xmlns="http://www.w3.org/2000/svg" viewBox="0 0 150.9 150.9"><defs><style>.d{fill:#984447;}.e{fill:#596157;}.f{fill:#5b8c5a;}</style></defs><g id="a"/><g id="b"><g id="c"><g><path class="f" d="M74.85,18.04c-33.77,.32-61.04,27.8-61.04,61.64,0,4.89,.57,9.64,1.65,14.2,.02,.09,.05,.18,.07,.27,5.74-.6,11.81-2.97,17.25-7.12,5.78-4.42,9.83-10.06,11.8-15.8l-5.31-7.41c-.55-.77-.22-1.85,.67-2.18l56.75-20.75c1.37-.5,2.52,1.11,1.61,2.24l-37.88,47.09c-.59,.74-1.73,.71-2.28-.06l-4.27-5.96h0c-5.9,.51-12.17,2.91-17.77,7.18-6.59,5.03-11.29,12.77-12.92,19.42,44.33,46.56,113.66,13.95,102.68-46.54-1.2,31.32-10,62.63-61.16,65.79-21.67-58.59,63.87-57.13,58.62-85.81,15.74,27.53,14.34,51.64,3.81,69.06,6.33-9.71,10.01-21.32,9.97-33.79-.09-34.05-28.19-61.8-62.25-61.47Z"/><path class="d" d="M75.45,0C33.78,0,0,33.78,0,75.45s33.78,75.45,75.45,75.45,75.45-33.78,75.45-75.45S117.12,0,75.45,0Zm51.68,113.3c10.52-17.41,11.93-41.53-3.81-69.06,5.25,28.68-80.29,27.22-58.62,85.81,51.16-3.17,59.96-34.47,61.16-65.79,10.98,60.49-58.35,93.1-102.68,46.54,1.63-6.64,6.33-14.39,12.92-19.42,5.6-4.27,11.88-6.67,17.77-7.18h0l4.27,5.96c.55,.77,1.69,.8,2.28,.06l37.88-47.09c.91-1.13-.24-2.74-1.61-2.24l-56.75,20.75c-.89,.33-1.23,1.41-.67,2.18l5.31,7.41c-1.98,5.73-6.02,11.38-11.8,15.8-5.44,4.15-11.51,6.51-17.25,7.12-.02-.09-.05-.18-.07-.27-1.08-4.56-1.65-9.31-1.65-14.2,0-33.85,27.28-61.32,61.04-61.64,34.06-.33,62.16,27.42,62.25,61.47,.03,12.47-3.64,24.07-9.97,33.79Z"/><path class="e" d="M75.45,0C33.78,0,0,33.78,0,75.45s33.78,75.45,75.45,75.45,75.45-33.78,75.45-75.45S117.12,0,75.45,0Zm51.68,113.3c10.52-17.41,11.93-41.53-3.81-69.06,5.25,28.68-80.29,27.22-58.62,85.81,51.16-3.17,59.96-34.47,61.16-65.79,10.98,60.49-58.35,93.1-102.68,46.54,1.63-6.64,6.33-14.39,12.92-19.42,5.6-4.27,11.88-6.67,17.77-7.18h0l4.27,5.96c.55,.77,1.69,.8,2.28,.06l37.88-47.09c.91-1.13-.24-2.74-1.61-2.24l-56.75,20.75c-.89,.33-1.23,1.41-.67,2.18l5.31,7.41c-1.98,5.73-6.02,11.38-11.8,15.8-5.44,4.15-11.51,6.51-17.25,7.12-.02-.09-.05-.18-.07-.27-1.08-4.56-1.65-9.31-1.65-14.2,0-33.85,27.28-61.32,61.04-61.64,34.06-.33,62.16,27.42,62.25,61.47,.03,12.47-3.64,24.07-9.97,33.79Z"/></g></g></g></svg>