<svg xmlns="http://www.w3.org/2000/svg" viewBox="0 0 929.52 929.52"><defs><style>.cls-1{fill:#fff;}</style></defs><g id="Layer_2" data-name="Layer 2"><g id="Layer_1-2" data-name="Layer 1"><path class="cls-1" d="M929.52,929.52H0V0H929.52ZM391.72,554.58h3c16.47,0,32.94,0,49.42,0a15,15,0,0,0,12-5.39q27.64-31.59,55.42-63.08l78.56-89.38c.68-.76,1.38-1.5,2.28-2.49,4.54,10.89,9,21.46,13.38,32.06C575,444,553.79,469.18,543.69,503s-7,66.66,9.45,97.91a129.74,129.74,0,0,0,241.4-88.72c-6.88-31.29-23.38-56.81-49.16-75.8-34.72-25.56-73.27-31.51-114.8-20.54L583,302c.87-.39,1.57-.74,2.3-1l27-10.65c4.08-1.61,8.21-3.15,12.25-4.87a13.44,13.44,0,0,0-1.28-25.13,13.47,13.47,0,0,0-9.38.45l-26.54,10.47q-13.15,5.19-26.31,10.4a13.78,13.78,0,0,0-9,10.69c-.61,3,.18,5.85,1.35,8.63q9.63,23,19.22,46c.3.72.55,1.45.9,2.38H380.62c-4.76-11.63-9.59-23.16-14.36-35h3.06c10.39,0,20.79.07,31.19,0a13.39,13.39,0,0,0,4.25-26,17.28,17.28,0,0,0-5.4-.85c-9.27-.09-18.55,0-27.83,0q-26.14,0-52.3,0a15.41,15.41,0,0,0-6.54,1.22,13.44,13.44,0,0,0,5.24,25.67c5.19.08,10.39,0,15.59,0H337c.23.42.37.62.46.84q9.49,23.06,19,46.1a2.81,2.81,0,0,1-.43,2.86q-18.16,28.94-36.32,57.91a13.62,13.62,0,0,1-1,1.22c-35.42-15.9-71.2-17.43-106.9-2.23s-60.2,41.59-72.42,78.41a129.27,129.27,0,0,0,85.25,165.06c34.88,10.57,68.85,7.21,100.65-10.68C363.89,632.13,385.42,598.5,391.72,554.58Z"/><path d="M391.72,554.58c-6.3,43.92-27.83,77.55-66.39,99.25-31.8,17.89-65.77,21.25-100.65,10.68a129.27,129.27,0,0,1-85.25-165.06c12.22-36.82,36.73-63.22,72.42-78.41s71.48-13.67,106.9,2.23a13.62,13.62,0,0,0,1-1.22q18.17-29,36.32-57.91a2.81,2.81,0,0,0,.43-2.86q-9.56-23-19-46.1c-.09-.22-.23-.42-.46-.84h-3.46c-5.2,0-10.4.06-15.59,0a13.44,13.44,0,0,1-5.24-25.67,15.41,15.41,0,0,1,6.54-1.22q26.14,0,52.3,0c9.28,0,18.56-.05,27.83,0a17.28,17.28,0,0,1,5.4.85,13.39,13.39,0,0,1-4.25,26c-10.4.1-20.8,0-31.19,0h-3.06c4.77,11.88,9.6,23.41,14.36,35H573.54c-.35-.93-.6-1.66-.9-2.38q-9.6-23-19.22-46c-1.17-2.78-2-5.6-1.35-8.63a13.78,13.78,0,0,1,9-10.69q13.16-5.22,26.31-10.4l26.54-10.47a13.47,13.47,0,0,1,9.38-.45,13.44,13.44,0,0,1,1.28,25.13c-4,1.72-8.17,3.26-12.25,4.87l-27,10.65c-.73.29-1.43.64-2.3,1l47.55,113.86c41.53-11,80.08-5,114.8,20.54,25.78,19,42.28,44.51,49.16,75.8A129.74,129.74,0,0,1,553.14,601c-16.41-31.25-19.52-64.12-9.45-97.91S575,444,605.77,426.32c-4.43-10.6-8.84-21.17-13.38-32.06-.9,1-1.6,1.73-2.28,2.49l-78.56,89.38q-27.72,31.53-55.42,63.08a15,15,0,0,1-12,5.39c-16.48-.05-32.95,0-49.42,0ZM616.33,451.67c-41.93,23.24-65.17,78.76-42.6,130.1a102.83,102.83,0,1,0,187.62-84.22c-24.46-52.88-80.94-68.19-120.09-56.21.35.9.69,1.79,1.06,2.67q19,45.57,38.06,91.13a25.18,25.18,0,0,1,1.21,3.38,13.41,13.41,0,0,1-15.88,16.4c-4.92-1.14-8-4.24-10-8.85q-19-45.71-38.13-91.36C617.21,453.7,616.77,452.7,616.33,451.67ZM364.22,554.58H263.09c-.8,0-1.6,0-2.4,0a13.47,13.47,0,0,1-12.51-17.17,19.39,19.39,0,0,1,2.38-4.94q25.88-41.37,51.81-82.72c.64-1,1.24-2,1.87-3.05-29.23-14.19-75.51-14.23-110.41,17.16A102.86,102.86,0,0,0,284.09,641C330.62,631,359.61,592.26,364.22,554.58Zm27.57-178,57.43,139.7c41-46.68,81.75-93,122.8-139.7Zm33,151c-18.45-44.85-36.71-89.36-55.22-134.29-9.45,15.08-18.6,29.67-27.78,44.33,29,23.25,45.67,53.13,50,90Zm-97.4-67c-14.07,22.47-27.93,44.57-41.84,66.78,3.06.58,77.11.46,79-.14C360.72,500.3,348.37,478.21,327.36,460.53Z"/><path class="cls-1" d="M616.33,451.67c.44,1,.88,2,1.3,3q19.08,45.68,38.13,91.36c1.92,4.61,5,7.71,10,8.85a13.41,13.41,0,0,0,15.88-16.4,25.18,25.18,0,0,0-1.21-3.38q-19-45.57-38.06-91.13c-.37-.88-.71-1.77-1.06-2.67,39.15-12,95.63,3.33,120.09,56.21a102.83,102.83,0,1,1-187.62,84.22C551.16,530.43,574.4,474.91,616.33,451.67Z"/><path class="cls-1" d="M364.22,554.58c-4.61,37.68-33.6,76.42-80.13,86.43a102.86,102.86,0,0,1-90.26-177.17c34.9-31.39,81.18-31.35,110.41-17.16-.63,1-1.23,2-1.87,3.05q-25.9,41.36-51.81,82.72a19.39,19.39,0,0,0-2.38,4.94,13.47,13.47,0,0,0,12.51,17.17c.8.05,1.6,0,2.4,0H364.22Z"/><path class="cls-1" d="M391.79,376.57H572c-41,46.71-81.78,93-122.8,139.7Z"/><path class="cls-1" d="M424.76,527.53h-33c-4.29-36.83-21-66.71-50-90,9.18-14.66,18.33-29.25,27.78-44.33C388.05,438.17,406.31,482.68,424.76,527.53Z"/><path class="cls-1" d="M327.36,460.53c21,17.68,33.36,39.77,37.16,66.64-1.89.6-75.94.72-79,.14C299.43,505.1,313.29,483,327.36,460.53Z"/></g></g></svg>