<svg width="312" height="431" viewBox="0 0 312 431" fill="none" xmlns="http://www.w3.org/2000/svg">
<path d="M4.15186 332.388C5.88135 332.388 7.1543 331.395 7.36914 329.885H6.17139C5.95654 330.766 5.17773 331.319 4.15186 331.319C2.75537 331.319 1.88525 330.17 1.88525 328.328C1.88525 326.485 2.75537 325.331 4.14648 325.331C5.16699 325.331 5.9458 325.943 6.17139 326.904H7.36914C7.17578 325.352 5.85449 324.262 4.14648 324.262C1.99268 324.262 0.655273 325.819 0.655273 328.328C0.655273 330.831 1.99805 332.388 4.15186 332.388ZM13.75 326.367H12.5952V329.789C12.5952 330.729 12.085 331.298 11.1504 331.298C10.3018 331.298 9.92041 330.836 9.92041 329.869V326.367H8.76562V330.154C8.76562 331.523 9.48535 332.313 10.7798 332.313C11.666 332.313 12.2622 331.937 12.5469 331.276H12.6382V332.2H13.75V326.367ZM15.4258 332.2H16.5806V328.714C16.5806 327.893 17.1982 327.329 18.0737 327.329C18.2778 327.329 18.6216 327.366 18.7183 327.393V326.308C18.5947 326.281 18.3745 326.265 18.2026 326.265C17.4399 326.265 16.79 326.679 16.6235 327.253H16.5376V326.367H15.4258V332.2ZM19.916 332.2H21.0708V328.714C21.0708 327.893 21.6885 327.329 22.564 327.329C22.7681 327.329 23.1118 327.366 23.2085 327.393V326.308C23.085 326.281 22.8647 326.265 22.6929 326.265C21.9302 326.265 21.2803 326.679 21.1138 327.253H21.0278V326.367H19.916V332.2ZM28.0049 330.637C27.79 331.11 27.312 331.368 26.6138 331.368C25.6899 331.368 25.0938 330.702 25.0562 329.644V329.59H29.1865V329.192C29.1865 327.366 28.2036 326.254 26.5762 326.254C24.9272 326.254 23.8799 327.441 23.8799 329.294C23.8799 331.158 24.9058 332.313 26.5815 332.313C27.9189 332.313 28.8643 331.668 29.1167 330.637H28.0049ZM26.5708 327.194C27.4248 327.194 27.9834 327.812 28.0103 328.757H25.0562C25.1206 327.817 25.7168 327.194 26.5708 327.194ZM30.5723 332.2H31.7271V328.779C31.7271 327.839 32.2695 327.259 33.1235 327.259C33.9775 327.259 34.3857 327.731 34.3857 328.698V332.2H35.5405V328.424C35.5405 327.033 34.8208 326.254 33.5156 326.254C32.6348 326.254 32.0547 326.646 31.77 327.291H31.6841V326.367H30.5723V332.2ZM37.5762 324.896V326.383H36.647V327.307H37.5762V330.664C37.5762 331.787 38.0864 332.238 39.3701 332.238C39.5957 332.238 39.8105 332.211 39.9985 332.179V331.26C39.8374 331.276 39.7354 331.287 39.5581 331.287C38.9834 331.287 38.731 331.013 38.731 330.385V327.307H39.9985V326.383H38.731V324.896H37.5762ZM49.3335 331.153H45.7026V324.45H44.4995V332.2H49.3335V331.153ZM52.9268 332.313C54.6348 332.313 55.6821 331.169 55.6821 329.284C55.6821 327.398 54.6294 326.254 52.9268 326.254C51.2188 326.254 50.166 327.404 50.166 329.284C50.166 331.169 51.2134 332.313 52.9268 332.313ZM52.9268 331.33C51.9224 331.33 51.3584 330.583 51.3584 329.284C51.3584 327.984 51.9224 327.232 52.9268 327.232C53.9258 327.232 54.4951 327.984 54.4951 329.284C54.4951 330.578 53.9258 331.33 52.9268 331.33ZM62.0254 328.242C61.875 327.108 60.9888 326.254 59.5225 326.254C57.8198 326.254 56.7832 327.409 56.7832 329.262C56.7832 331.153 57.8252 332.313 59.5278 332.313C60.9727 332.313 61.875 331.502 62.0254 330.353H60.9028C60.7524 330.986 60.2529 331.33 59.5225 331.33C58.561 331.33 57.9648 330.551 57.9648 329.262C57.9648 328 58.5557 327.237 59.5225 327.237C60.2959 327.237 60.7686 327.672 60.9028 328.242H62.0254ZM64.9634 332.297C65.7314 332.297 66.3706 331.964 66.7197 331.373H66.811V332.2H67.9229V328.209C67.9229 326.985 67.0957 326.254 65.6294 326.254C64.3027 326.254 63.3574 326.894 63.2393 327.876H64.3564C64.4854 327.452 64.9312 327.21 65.5757 327.21C66.3652 327.21 66.7734 327.57 66.7734 328.209V328.72L65.189 328.816C63.7979 328.902 63.0137 329.509 63.0137 330.557C63.0137 331.62 63.8354 332.297 64.9634 332.297ZM65.2588 331.368C64.6304 331.368 64.1738 331.051 64.1738 330.508C64.1738 329.977 64.5391 329.692 65.3447 329.638L66.7734 329.542V330.046C66.7734 330.798 66.1289 331.368 65.2588 331.368ZM69.9746 324.896V326.383H69.0454V327.307H69.9746V330.664C69.9746 331.787 70.4849 332.238 71.7686 332.238C71.9941 332.238 72.209 332.211 72.397 332.179V331.26C72.2358 331.276 72.1338 331.287 71.9565 331.287C71.3818 331.287 71.1294 331.013 71.1294 330.385V327.307H72.397V326.383H71.1294V324.896H69.9746ZM74.3521 325.325C74.7549 325.325 75.0825 324.998 75.0825 324.6C75.0825 324.197 74.7549 323.87 74.3521 323.87C73.9492 323.87 73.6216 324.197 73.6216 324.6C73.6216 324.998 73.9492 325.325 74.3521 325.325ZM73.7773 332.2H74.9268V326.367H73.7773V332.2ZM79.0947 332.313C80.8027 332.313 81.8501 331.169 81.8501 329.284C81.8501 327.398 80.7974 326.254 79.0947 326.254C77.3867 326.254 76.334 327.404 76.334 329.284C76.334 331.169 77.3813 332.313 79.0947 332.313ZM79.0947 331.33C78.0903 331.33 77.5264 330.583 77.5264 329.284C77.5264 327.984 78.0903 327.232 79.0947 327.232C80.0938 327.232 80.6631 327.984 80.6631 329.284C80.6631 330.578 80.0938 331.33 79.0947 331.33ZM83.2412 332.2H84.396V328.779C84.396 327.839 84.9385 327.259 85.7925 327.259C86.6465 327.259 87.0547 327.731 87.0547 328.698V332.2H88.2095V328.424C88.2095 327.033 87.4897 326.254 86.1846 326.254C85.3037 326.254 84.7236 326.646 84.439 327.291H84.353V326.367H83.2412V332.2ZM100.821 332.2V324.45H99.4136L96.9429 330.514H96.8516L94.3862 324.45H92.979V332.2H94.0962V326.523H94.1714L96.4434 332.061H97.3564L99.6284 326.523H99.7036V332.2H100.821ZM104.248 332.297C105.016 332.297 105.655 331.964 106.004 331.373H106.095V332.2H107.207V328.209C107.207 326.985 106.38 326.254 104.914 326.254C103.587 326.254 102.642 326.894 102.523 327.876H103.641C103.77 327.452 104.215 327.21 104.86 327.21C105.649 327.21 106.058 327.57 106.058 328.209V328.72L104.473 328.816C103.082 328.902 102.298 329.509 102.298 330.557C102.298 331.62 103.12 332.297 104.248 332.297ZM104.543 331.368C103.915 331.368 103.458 331.051 103.458 330.508C103.458 329.977 103.823 329.692 104.629 329.638L106.058 329.542V330.046C106.058 330.798 105.413 331.368 104.543 331.368ZM108.851 332.2H110.005V328.714C110.005 327.893 110.623 327.329 111.499 327.329C111.703 327.329 112.046 327.366 112.143 327.393V326.308C112.02 326.281 111.799 326.265 111.627 326.265C110.865 326.265 110.215 326.679 110.048 327.253H109.962V326.367H108.851V332.2ZM114.555 328.827H114.463V324.079H113.309V332.2H114.463V330.079L114.974 329.59L116.982 332.2H118.4L115.833 328.865L118.239 326.367H116.875L114.555 328.827ZM122.998 330.637C122.783 331.11 122.305 331.368 121.607 331.368C120.683 331.368 120.087 330.702 120.049 329.644V329.59H124.18V329.192C124.18 327.366 123.197 326.254 121.569 326.254C119.92 326.254 118.873 327.441 118.873 329.294C118.873 331.158 119.899 332.313 121.575 332.313C122.912 332.313 123.857 331.668 124.11 330.637H122.998ZM121.564 327.194C122.418 327.194 122.977 327.812 123.003 328.757H120.049C120.114 327.817 120.71 327.194 121.564 327.194ZM125.565 332.2H126.72V328.714C126.72 327.893 127.338 327.329 128.213 327.329C128.417 327.329 128.761 327.366 128.858 327.393V326.308C128.734 326.281 128.514 326.265 128.342 326.265C127.58 326.265 126.93 326.679 126.763 327.253H126.677V326.367H125.565V332.2Z" fill="#8279E3"/>
<path d="M0.972168 154.049V161.8H2.17529V159.152H3.96924C5.48926 159.152 6.56348 158.11 6.56348 156.617C6.56348 155.091 5.52148 154.049 4.00684 154.049H0.972168ZM2.17529 155.064H3.68994C4.74805 155.064 5.3335 155.612 5.3335 156.617C5.3335 157.589 4.72656 158.142 3.68994 158.142H2.17529V155.064ZM8.57764 154.925C8.98047 154.925 9.30811 154.597 9.30811 154.2C9.30811 153.797 8.98047 153.469 8.57764 153.469C8.1748 153.469 7.84717 153.797 7.84717 154.2C7.84717 154.597 8.1748 154.925 8.57764 154.925ZM8.00293 161.8H9.15234V155.967H8.00293V161.8ZM10.8496 161.8H12.0044V158.378C12.0044 157.438 12.5469 156.858 13.4009 156.858C14.2549 156.858 14.6631 157.331 14.6631 158.298V161.8H15.8179V158.024C15.8179 156.633 15.0981 155.854 13.793 155.854C12.9121 155.854 12.332 156.246 12.0474 156.891H11.9614V155.967H10.8496V161.8ZM17.499 161.8H18.6538V153.679H17.499V161.8ZM24.2236 160.237C24.0088 160.709 23.5308 160.967 22.8325 160.967C21.9087 160.967 21.3125 160.301 21.2749 159.243V159.189H25.4053V158.792C25.4053 156.966 24.4224 155.854 22.7949 155.854C21.146 155.854 20.0986 157.041 20.0986 158.894C20.0986 160.758 21.1245 161.913 22.8003 161.913C24.1377 161.913 25.083 161.268 25.3354 160.237H24.2236ZM22.7896 156.794C23.6436 156.794 24.2021 157.412 24.229 158.357H21.2749C21.3394 157.417 21.9355 156.794 22.7896 156.794ZM27.1992 154.495V155.983H26.27V156.907H27.1992V160.264C27.1992 161.386 27.7095 161.837 28.9932 161.837C29.2188 161.837 29.4336 161.811 29.6216 161.778V160.86C29.4604 160.876 29.3584 160.887 29.1812 160.887C28.6064 160.887 28.354 160.613 28.354 159.984V156.907H29.6216V155.983H28.354V154.495H27.1992ZM41.9644 161.8V154.049H40.5571L38.0864 160.113H37.9951L35.5298 154.049H34.1226V161.8H35.2397V156.123H35.3149L37.5869 161.66H38.5L40.772 156.123H40.8472V161.8H41.9644ZM45.3911 161.896C46.1592 161.896 46.7983 161.563 47.1475 160.973H47.2388V161.8H48.3506V157.809C48.3506 156.584 47.5234 155.854 46.0571 155.854C44.7305 155.854 43.7852 156.493 43.667 157.476H44.7842C44.9131 157.052 45.3589 156.81 46.0034 156.81C46.793 156.81 47.2012 157.17 47.2012 157.809V158.319L45.6167 158.416C44.2256 158.502 43.4414 159.109 43.4414 160.156C43.4414 161.22 44.2632 161.896 45.3911 161.896ZM45.6865 160.967C45.0581 160.967 44.6016 160.65 44.6016 160.108C44.6016 159.576 44.9668 159.292 45.7725 159.238L47.2012 159.141V159.646C47.2012 160.398 46.5566 160.967 45.6865 160.967ZM49.9941 161.8H51.1489V158.314C51.1489 157.492 51.7666 156.928 52.6421 156.928C52.8462 156.928 53.1899 156.966 53.2866 156.993V155.908C53.1631 155.881 52.9429 155.865 52.771 155.865C52.0083 155.865 51.3584 156.278 51.1919 156.853H51.106V155.967H49.9941V161.8ZM55.6982 158.427H55.6069V153.679H54.4521V161.8H55.6069V159.678L56.1172 159.189L58.126 161.8H59.5439L56.9766 158.464L59.3828 155.967H58.0186L55.6982 158.427ZM64.1416 160.237C63.9268 160.709 63.4487 160.967 62.7505 160.967C61.8267 160.967 61.2305 160.301 61.1929 159.243V159.189H65.3232V158.792C65.3232 156.966 64.3403 155.854 62.7129 155.854C61.064 155.854 60.0166 157.041 60.0166 158.894C60.0166 160.758 61.0425 161.913 62.7183 161.913C64.0557 161.913 65.001 161.268 65.2534 160.237H64.1416ZM62.7075 156.794C63.5615 156.794 64.1201 157.412 64.147 158.357H61.1929C61.2573 157.417 61.8535 156.794 62.7075 156.794ZM66.709 161.8H67.8638V158.314C67.8638 157.492 68.4814 156.928 69.3569 156.928C69.561 156.928 69.9048 156.966 70.0015 156.993V155.908C69.8779 155.881 69.6577 155.865 69.4858 155.865C68.7231 155.865 68.0732 156.278 67.9067 156.853H67.8208V155.967H66.709V161.8ZM70.8608 157.6C70.8608 158.464 71.3765 158.958 72.4883 159.216L73.5088 159.458C74.0942 159.598 74.3682 159.834 74.3682 160.199C74.3682 160.677 73.8579 161.01 73.1382 161.01C72.4399 161.01 72.0103 160.726 71.8652 160.269H70.7104C70.8125 161.284 71.7202 161.913 73.1113 161.913C74.5078 161.913 75.5337 161.177 75.5337 160.092C75.5337 159.243 75.0127 158.765 73.9009 158.507L72.9287 158.282C72.2949 158.131 71.9995 157.906 71.9995 157.546C71.9995 157.073 72.4883 156.756 73.1328 156.756C73.7881 156.756 74.207 157.041 74.3145 157.476H75.4209C75.3081 156.466 74.4487 155.854 73.1328 155.854C71.8115 155.854 70.8608 156.584 70.8608 157.6Z" fill="#8279E3"/>
<g clip-path="url(#clip0_55_186)">
<g filter="url(#filter0_f_55_186)">
<ellipse cx="28.8" cy="267" rx="9.6" ry="4.8" fill="black" fill-opacity="0.12"/>
</g>
<mask id="path-4-outside-1_55_186" maskUnits="userSpaceOnUse" x="1.79999" y="199.2" width="54" height="68" fill="black">
<rect fill="white" x="1.79999" y="199.2" width="54" height="68"/>
<path fill-rule="evenodd" clip-rule="evenodd" d="M42.9983 245.551C48.9422 241.183 52.8 234.142 52.8 226.2C52.8 212.945 42.0548 202.2 28.8 202.2C15.5452 202.2 4.79999 212.945 4.79999 226.2C4.79999 234.142 8.65774 241.183 14.6016 245.551C19.1185 248.955 25.4855 254.324 26.949 262.967C27.1041 263.882 27.8715 264.592 28.8 264.592C29.7285 264.592 30.4959 263.882 30.6509 262.967C32.1145 254.324 38.4814 248.955 42.9983 245.551Z"/>
</mask>
<path fill-rule="evenodd" clip-rule="evenodd" d="M42.9983 245.551C48.9422 241.183 52.8 234.142 52.8 226.2C52.8 212.945 42.0548 202.2 28.8 202.2C15.5452 202.2 4.79999 212.945 4.79999 226.2C4.79999 234.142 8.65774 241.183 14.6016 245.551C19.1185 248.955 25.4855 254.324 26.949 262.967C27.1041 263.882 27.8715 264.592 28.8 264.592C29.7285 264.592 30.4959 263.882 30.6509 262.967C32.1145 254.324 38.4814 248.955 42.9983 245.551Z" fill="#EA352B"/>
<path d="M42.9983 245.551L41.577 243.617L41.5654 243.626L41.554 243.635L42.9983 245.551ZM14.6016 245.551L16.0459 243.635L16.0345 243.626L16.0229 243.617L14.6016 245.551ZM26.949 262.967L29.3153 262.566V262.566L26.949 262.967ZM30.6509 262.967L28.2846 262.566L28.2846 262.566L30.6509 262.967ZM44.4196 247.485C50.9523 242.684 55.2 234.938 55.2 226.2H50.4C50.4 233.346 46.9321 239.682 41.577 243.617L44.4196 247.485ZM55.2 226.2C55.2 211.619 43.3803 199.8 28.8 199.8V204.6C40.7293 204.6 50.4 214.27 50.4 226.2H55.2ZM28.8 199.8C14.2197 199.8 2.39999 211.619 2.39999 226.2H7.19999C7.19999 214.27 16.8706 204.6 28.8 204.6V199.8ZM2.39999 226.2C2.39999 234.938 6.64761 242.684 13.1803 247.485L16.0229 243.617C10.6679 239.682 7.19999 233.346 7.19999 226.2H2.39999ZM29.3153 262.566C27.6828 252.926 20.5965 247.063 16.0459 243.635L13.1573 247.468C17.6405 250.846 23.2881 255.722 24.5827 263.367L29.3153 262.566ZM28.8 262.192C28.9647 262.192 29.1003 262.259 29.1823 262.332C29.2588 262.4 29.3013 262.483 29.3153 262.566L24.5827 263.367C24.9141 265.324 26.5894 266.992 28.8 266.992V262.192ZM28.2846 262.566C28.2987 262.483 28.3411 262.4 28.4177 262.332C28.4997 262.259 28.6353 262.192 28.8 262.192V266.992C31.0106 266.992 32.6859 265.324 33.0173 263.367L28.2846 262.566ZM41.554 243.635C37.0034 247.064 29.9171 252.926 28.2846 262.566L33.0173 263.367C34.3119 255.722 39.9594 250.846 44.4426 247.468L41.554 243.635Z" fill="url(#paint0_linear_55_186)" mask="url(#path-4-outside-1_55_186)"/>
</g>
<g filter="url(#filter1_f_55_186)">
<ellipse cx="273.6" cy="267" rx="9.6" ry="4.8" fill="black" fill-opacity="0.12"/>
</g>
<mask id="path-7-outside-2_55_186" maskUnits="userSpaceOnUse" x="246.6" y="199.2" width="54" height="68" fill="black">
<rect fill="white" x="246.6" y="199.2" width="54" height="68"/>
<path fill-rule="evenodd" clip-rule="evenodd" d="M259.2 202.2C253.898 202.2 249.6 206.498 249.6 211.8V240.6C249.6 245.902 253.898 250.2 259.2 250.2H264.83C267.957 253.374 270.827 257.521 271.749 262.967C271.904 263.882 272.671 264.593 273.6 264.593C274.528 264.593 275.296 263.882 275.451 262.967C276.373 257.521 279.243 253.374 282.37 250.2H288C293.302 250.2 297.6 245.902 297.6 240.6V211.8C297.6 206.498 293.302 202.2 288 202.2H259.2Z"/>
</mask>
<path fill-rule="evenodd" clip-rule="evenodd" d="M259.2 202.2C253.898 202.2 249.6 206.498 249.6 211.8V240.6C249.6 245.902 253.898 250.2 259.2 250.2H264.83C267.957 253.374 270.827 257.521 271.749 262.967C271.904 263.882 272.671 264.593 273.6 264.593C274.528 264.593 275.296 263.882 275.451 262.967C276.373 257.521 279.243 253.374 282.37 250.2H288C293.302 250.2 297.6 245.902 297.6 240.6V211.8C297.6 206.498 293.302 202.2 288 202.2H259.2Z" fill="#6393F2"/>
<path d="M264.83 250.2L266.54 248.516L265.835 247.8H264.83V250.2ZM271.749 262.967L274.115 262.566V262.566L271.749 262.967ZM275.451 262.967L277.817 263.368L277.817 263.368L275.451 262.967ZM282.37 250.2V247.8H281.365L280.66 248.516L282.37 250.2ZM252 211.8C252 207.824 255.224 204.6 259.2 204.6V199.8C252.573 199.8 247.2 205.173 247.2 211.8H252ZM252 240.6V211.8H247.2V240.6H252ZM259.2 247.8C255.224 247.8 252 244.577 252 240.6H247.2C247.2 247.228 252.573 252.6 259.2 252.6V247.8ZM264.83 247.8H259.2V252.6H264.83V247.8ZM274.115 262.566C273.084 256.478 269.88 251.906 266.54 248.516L263.12 251.885C266.034 254.842 268.569 258.563 269.383 263.368L274.115 262.566ZM273.6 262.193C273.765 262.193 273.9 262.259 273.982 262.332C274.059 262.401 274.101 262.483 274.115 262.566L269.383 263.368C269.714 265.324 271.389 266.993 273.6 266.993V262.193ZM273.085 262.566C273.099 262.483 273.141 262.401 273.218 262.332C273.3 262.259 273.435 262.193 273.6 262.193V266.993C275.811 266.993 277.486 265.324 277.817 263.368L273.085 262.566ZM280.66 248.516C277.32 251.906 274.116 256.478 273.085 262.566L277.817 263.368C278.631 258.563 281.166 254.842 284.08 251.885L280.66 248.516ZM288 247.8H282.37V252.6H288V247.8ZM295.2 240.6C295.2 244.577 291.976 247.8 288 247.8V252.6C294.627 252.6 300 247.228 300 240.6H295.2ZM295.2 211.8V240.6H300V211.8H295.2ZM288 204.6C291.976 204.6 295.2 207.824 295.2 211.8H300C300 205.173 294.627 199.8 288 199.8V204.6ZM259.2 204.6H288V199.8H259.2V204.6Z" fill="url(#paint1_linear_55_186)" mask="url(#path-7-outside-2_55_186)"/>
<path fill-rule="evenodd" clip-rule="evenodd" d="M273.6 209.4C270.271 209.4 267.425 210.557 265.063 212.87C262.754 215.131 261.6 217.892 261.6 221.152C261.6 222.782 262.03 224.675 262.889 226.831C263.748 228.987 264.701 230.919 265.748 232.628C266.795 234.337 268.016 236.099 269.412 237.913C270.808 239.727 271.774 240.936 272.311 241.541C272.848 242.145 273.278 242.632 273.6 243L274.889 241.659C275.694 240.713 276.674 239.437 277.828 237.834C278.983 236.23 280.15 234.508 281.332 232.668C282.513 230.827 283.519 228.855 284.352 226.752C285.184 224.649 285.6 222.782 285.6 221.152C285.6 217.892 284.432 215.118 282.097 212.831C279.761 210.544 276.929 209.4 273.6 209.4ZM273.6 226.2C276.251 226.2 278.4 224.051 278.4 221.4C278.4 218.749 276.251 216.6 273.6 216.6C270.949 216.6 268.8 218.749 268.8 221.4C268.8 224.051 270.949 226.2 273.6 226.2Z" fill="white"/>
<g clip-path="url(#clip1_55_186)">
<g filter="url(#filter2_f_55_186)">
<ellipse cx="110.4" cy="267" rx="9.6" ry="4.8" fill="black" fill-opacity="0.12"/>
</g>
<mask id="path-11-outside-3_55_186" maskUnits="userSpaceOnUse" x="83.4" y="199.2" width="54" height="68" fill="black">
<rect fill="white" x="83.4" y="199.2" width="54" height="68"/>
<path fill-rule="evenodd" clip-rule="evenodd" d="M124.598 245.552C130.542 241.184 134.4 234.142 134.4 226.2C134.4 212.945 123.655 202.2 110.4 202.2C97.1451 202.2 86.4 212.945 86.4 226.2C86.4 234.142 90.2578 241.184 96.2018 245.552C100.719 248.955 107.085 254.325 108.549 262.967C108.704 263.882 109.471 264.593 110.4 264.593C111.328 264.593 112.096 263.882 112.251 262.967C113.714 254.325 120.081 248.956 124.598 245.552Z"/>
</mask>
<path fill-rule="evenodd" clip-rule="evenodd" d="M124.598 245.552C130.542 241.184 134.4 234.142 134.4 226.2C134.4 212.945 123.655 202.2 110.4 202.2C97.1451 202.2 86.4 212.945 86.4 226.2C86.4 234.142 90.2578 241.184 96.2018 245.552C100.719 248.955 107.085 254.325 108.549 262.967C108.704 263.882 109.471 264.593 110.4 264.593C111.328 264.593 112.096 263.882 112.251 262.967C113.714 254.325 120.081 248.956 124.598 245.552Z" fill="#EA352B"/>
<path d="M124.598 245.552L123.177 243.618L123.165 243.627L123.154 243.635L124.598 245.552ZM96.2018 245.552L97.6461 243.635L97.6347 243.627L97.6231 243.618L96.2018 245.552ZM108.549 262.967L110.915 262.566V262.566L108.549 262.967ZM112.251 262.967L114.617 263.368L114.617 263.368L112.251 262.967ZM126.019 247.486C132.552 242.685 136.8 234.938 136.8 226.2H132C132 233.346 128.532 239.682 123.177 243.618L126.019 247.486ZM136.8 226.2C136.8 211.62 124.98 199.8 110.4 199.8V204.6C122.329 204.6 132 214.271 132 226.2H136.8ZM110.4 199.8C95.8196 199.8 84 211.62 84 226.2H88.8C88.8 214.271 98.4706 204.6 110.4 204.6V199.8ZM84 226.2C84 234.938 88.2477 242.685 94.7805 247.486L97.6231 243.618C92.2679 239.682 88.8 233.346 88.8 226.2H84ZM110.915 262.566C109.283 252.926 102.197 247.064 97.6461 243.635L94.7575 247.469C99.2406 250.847 104.888 255.723 106.183 263.368L110.915 262.566ZM110.4 262.193C110.565 262.193 110.7 262.259 110.782 262.332C110.859 262.401 110.901 262.483 110.915 262.566L106.183 263.368C106.514 265.324 108.189 266.993 110.4 266.993V262.193ZM109.885 262.566C109.899 262.483 109.941 262.401 110.018 262.332C110.1 262.259 110.235 262.193 110.4 262.193V266.993C112.611 266.993 114.286 265.324 114.617 263.368L109.885 262.566ZM123.154 243.635C118.603 247.064 111.517 252.926 109.885 262.566L114.617 263.368C115.912 255.723 121.559 250.847 126.042 247.469L123.154 243.635Z" fill="url(#paint2_linear_55_186)" mask="url(#path-11-outside-3_55_186)"/>
</g>
<path d="M113.409 215.883V236.4H109.359V220.551L104.494 222.098V218.906L112.973 215.883H113.409Z" fill="white"/>
<g clip-path="url(#clip2_55_186)">
<g filter="url(#filter3_f_55_186)">
<ellipse cx="192" cy="267" rx="9.6" ry="4.8" fill="black" fill-opacity="0.12"/>
</g>
<mask id="path-15-outside-4_55_186" maskUnits="userSpaceOnUse" x="165" y="199.2" width="54" height="68" fill="black">
<rect fill="white" x="165" y="199.2" width="54" height="68"/>
<path fill-rule="evenodd" clip-rule="evenodd" d="M206.198 245.552C212.142 241.184 216 234.142 216 226.2C216 212.945 205.255 202.2 192 202.2C178.745 202.2 168 212.945 168 226.2C168 234.142 171.858 241.184 177.802 245.552C182.319 248.955 188.686 254.325 190.149 262.967C190.304 263.882 191.072 264.593 192 264.593C192.928 264.593 193.696 263.882 193.851 262.967C195.314 254.325 201.681 248.956 206.198 245.552Z"/>
</mask>
<path fill-rule="evenodd" clip-rule="evenodd" d="M206.198 245.552C212.142 241.184 216 234.142 216 226.2C216 212.945 205.255 202.2 192 202.2C178.745 202.2 168 212.945 168 226.2C168 234.142 171.858 241.184 177.802 245.552C182.319 248.955 188.686 254.325 190.149 262.967C190.304 263.882 191.072 264.593 192 264.593C192.928 264.593 193.696 263.882 193.851 262.967C195.314 254.325 201.681 248.956 206.198 245.552Z" fill="#EA352B"/>
<path d="M206.198 245.552L204.777 243.618L204.765 243.627L204.754 243.635L206.198 245.552ZM177.802 245.552L179.246 243.635L179.235 243.627L179.223 243.618L177.802 245.552ZM190.149 262.967L192.515 262.566V262.566L190.149 262.967ZM193.851 262.967L196.217 263.368L196.217 263.368L193.851 262.967ZM207.619 247.486C214.152 242.685 218.4 234.938 218.4 226.2H213.6C213.6 233.346 210.132 239.682 204.777 243.618L207.619 247.486ZM218.4 226.2C218.4 211.62 206.58 199.8 192 199.8V204.6C203.929 204.6 213.6 214.271 213.6 226.2H218.4ZM192 199.8C177.42 199.8 165.6 211.62 165.6 226.2H170.4C170.4 214.271 180.071 204.6 192 204.6V199.8ZM165.6 226.2C165.6 234.938 169.848 242.685 176.381 247.486L179.223 243.618C173.868 239.682 170.4 233.346 170.4 226.2H165.6ZM192.515 262.566C190.883 252.926 183.797 247.064 179.246 243.635L176.358 247.469C180.841 250.847 186.488 255.723 187.783 263.368L192.515 262.566ZM192 262.193C192.165 262.193 192.3 262.259 192.382 262.332C192.459 262.401 192.501 262.483 192.515 262.566L187.783 263.368C188.114 265.324 189.789 266.993 192 266.993V262.193ZM191.485 262.566C191.499 262.483 191.541 262.401 191.618 262.332C191.7 262.259 191.835 262.193 192 262.193V266.993C194.211 266.993 195.886 265.324 196.217 263.368L191.485 262.566ZM204.754 243.635C200.203 247.064 193.117 252.926 191.485 262.566L196.217 263.368C197.512 255.723 203.159 250.847 207.642 247.469L204.754 243.635Z" fill="url(#paint3_linear_55_186)" mask="url(#path-15-outside-4_55_186)"/>
</g>
<circle cx="192" cy="226.2" r="9.6" fill="black" fill-opacity="0.4"/>
<g clip-path="url(#clip3_55_186)">
<g filter="url(#filter4_f_55_186)">
<ellipse cx="32.4" cy="95.3999" rx="10.8" ry="6" fill="black" fill-opacity="0.12"/>
</g>
<mask id="path-19-outside-5_55_186" maskUnits="userSpaceOnUse" x="-0.599976" y="0" width="66" height="97" fill="black">
<rect fill="white" x="-0.599976" width="66" height="97"/>
<path fill-rule="evenodd" clip-rule="evenodd" d="M56.3565 51.0607C60.1503 46.0364 62.4 39.7809 62.4 33C62.4 16.4315 48.9686 3 32.4 3C15.8315 3 2.40002 16.4315 2.40002 33C2.40002 39.7803 4.64937 46.0353 8.44257 51.0594C9.79084 52.9354 11.6137 54.9319 13.6316 57.1418C20.6397 64.8171 30 75.0685 30 91.8C30 93.1255 31.0745 94.2 32.4 94.2C33.7255 94.2 34.8 93.1255 34.8 91.8C34.8 75.0685 44.1603 64.8171 51.1684 57.1418C53.1858 54.9324 55.0083 52.9364 56.3565 51.0607Z"/>
</mask>
<path fill-rule="evenodd" clip-rule="evenodd" d="M56.3565 51.0607C60.1503 46.0364 62.4 39.7809 62.4 33C62.4 16.4315 48.9686 3 32.4 3C15.8315 3 2.40002 16.4315 2.40002 33C2.40002 39.7803 4.64937 46.0353 8.44257 51.0594C9.79084 52.9354 11.6137 54.9319 13.6316 57.1418C20.6397 64.8171 30 75.0685 30 91.8C30 93.1255 31.0745 94.2 32.4 94.2C33.7255 94.2 34.8 93.1255 34.8 91.8C34.8 75.0685 44.1603 64.8171 51.1684 57.1418C53.1858 54.9324 55.0083 52.9364 56.3565 51.0607Z" fill="#EA352B"/>
<path d="M56.3565 51.0607L54.4412 49.6145L54.4242 49.637L54.4077 49.6599L56.3565 51.0607ZM8.44257 51.0594L10.3915 49.6588L10.375 49.6358L10.358 49.6133L8.44257 51.0594ZM13.6316 57.1418L11.8593 58.7601L13.6316 57.1418ZM51.1684 57.1418L52.9407 58.7601H52.9407L51.1684 57.1418ZM58.2718 52.5069C62.3692 47.0805 64.8 40.3207 64.8 33H60C60 39.2412 57.9313 44.9923 54.4412 49.6145L58.2718 52.5069ZM64.8 33C64.8 15.106 50.2941 0.6 32.4 0.6V5.4C47.6431 5.4 60 17.7569 60 33H64.8ZM32.4 0.6C14.506 0.6 2.43187e-05 15.106 2.43187e-05 33H4.80002C4.80002 17.7569 17.157 5.4 32.4 5.4V0.6ZM2.43187e-05 33C2.43187e-05 40.32 2.43039 47.0793 6.52717 52.5055L10.358 49.6133C6.86835 44.9913 4.80002 39.2406 4.80002 33H2.43187e-05ZM6.49367 52.46C7.94101 54.4739 9.87059 56.5821 11.8593 58.7601L15.4039 55.5236C13.3569 53.2816 11.6407 51.397 10.3915 49.6588L6.49367 52.46ZM11.8593 58.7601C18.8773 66.4462 27.6 76.0814 27.6 91.8H32.4C32.4 74.0556 22.4022 63.188 15.4039 55.5236L11.8593 58.7601ZM27.6 91.8C27.6 94.451 29.749 96.6 32.4 96.6V91.8V91.8H27.6ZM32.4 96.6C35.051 96.6 37.2 94.451 37.2 91.8H32.4L32.4 91.8V96.6ZM37.2 91.8C37.2 76.0814 45.9227 66.4462 52.9407 58.7601L49.3961 55.5236C42.3978 63.188 32.4 74.0556 32.4 91.8H37.2ZM52.9407 58.7601C54.929 56.5826 56.8581 54.4749 58.3053 52.4615L54.4077 49.6599C53.1585 51.3978 51.4427 53.2821 49.3961 55.5236L52.9407 58.7601Z" fill="url(#paint4_linear_55_186)" mask="url(#path-19-outside-5_55_186)"/>
<circle cx="32.4" cy="33.0002" r="10.8" fill="black" fill-opacity="0.4"/>
</g>
<g clip-path="url(#clip4_55_186)">
<g filter="url(#filter5_f_55_186)">
<ellipse cx="121.2" cy="95.3999" rx="10.8" ry="6" fill="black" fill-opacity="0.12"/>
</g>
<mask id="path-23-outside-6_55_186" maskUnits="userSpaceOnUse" x="88.2" y="0" width="66" height="97" fill="black">
<rect fill="white" x="88.2" width="66" height="97"/>
<path fill-rule="evenodd" clip-rule="evenodd" d="M145.158 51.0589C148.951 46.0349 151.2 39.7801 151.2 33C151.2 16.4315 137.769 3 121.2 3C104.631 3 91.2 16.4315 91.2 33C91.2 39.7795 93.4488 46.0338 97.2411 51.0575C98.5895 52.9341 100.413 54.9311 102.431 57.1418L102.432 57.1419C109.44 64.8172 118.8 75.0686 118.8 91.8001C118.8 93.1256 119.875 94.2001 121.2 94.2001C122.525 94.2001 123.6 93.1256 123.6 91.8001C123.6 75.0686 132.96 64.8172 139.968 57.1419C141.986 54.9317 143.81 52.9351 145.158 51.0589Z"/>
</mask>
<path fill-rule="evenodd" clip-rule="evenodd" d="M145.158 51.0589C148.951 46.0349 151.2 39.7801 151.2 33C151.2 16.4315 137.769 3 121.2 3C104.631 3 91.2 16.4315 91.2 33C91.2 39.7795 93.4488 46.0338 97.2411 51.0575C98.5895 52.9341 100.413 54.9311 102.431 57.1418L102.432 57.1419C109.44 64.8172 118.8 75.0686 118.8 91.8001C118.8 93.1256 119.875 94.2001 121.2 94.2001C122.525 94.2001 123.6 93.1256 123.6 91.8001C123.6 75.0686 132.96 64.8172 139.968 57.1419C141.986 54.9317 143.81 52.9351 145.158 51.0589Z" fill="#6393F2"/>
<path d="M145.158 51.0589L143.242 49.6128L143.225 49.6354L143.209 49.6583L145.158 51.0589ZM97.2411 51.0575L99.1902 49.6571L99.1737 49.6341L99.1566 49.6116L97.2411 51.0575ZM102.431 57.1418L100.659 58.7601L100.662 58.7635L102.431 57.1418ZM102.432 57.1419L104.204 55.5237L104.201 55.5202L102.432 57.1419ZM139.968 57.1419L138.196 55.5237L139.968 57.1419ZM147.073 52.505C151.17 47.0789 153.6 40.3198 153.6 33H148.8C148.8 39.2404 146.732 44.9909 143.242 49.6128L147.073 52.505ZM153.6 33C153.6 15.106 139.094 0.6 121.2 0.6V5.4C136.443 5.4 148.8 17.7569 148.8 33H153.6ZM121.2 0.6C103.306 0.6 88.8 15.106 88.8 33H93.6C93.6 17.7569 105.957 5.4 121.2 5.4V0.6ZM88.8 33C88.8 40.3191 91.2298 47.0777 95.3256 52.5035L99.1566 49.6116C95.6678 44.9899 93.6 39.2399 93.6 33H88.8ZM95.2921 52.458C96.7396 54.4725 98.6698 56.5814 100.659 58.7601L104.204 55.5235C102.156 53.2808 100.439 51.3957 99.1902 49.6571L95.2921 52.458ZM100.662 58.7635L100.662 58.7637L104.201 55.5202L104.201 55.5201L100.662 58.7635ZM100.659 58.7602C107.677 66.4463 116.4 76.0815 116.4 91.8001H121.2C121.2 74.0557 111.202 63.1881 104.204 55.5237L100.659 58.7602ZM116.4 91.8001C116.4 94.4511 118.549 96.6001 121.2 96.6001V91.8001H121.2H116.4ZM121.2 96.6001C123.851 96.6001 126 94.4511 126 91.8001H121.2H121.2V96.6001ZM126 91.8001C126 76.0815 134.723 66.4463 141.741 58.7602L138.196 55.5237C131.198 63.1881 121.2 74.0557 121.2 91.8001H126ZM141.741 58.7602C143.73 56.582 145.659 54.4736 147.107 52.4595L143.209 49.6583C141.96 51.3967 140.243 53.2815 138.196 55.5237L141.741 58.7602Z" fill="url(#paint5_linear_55_186)" mask="url(#path-23-outside-6_55_186)"/>
<circle cx="121.2" cy="33.0002" r="10.8" fill="black" fill-opacity="0.4"/>
</g>
<circle opacity="0.3" cx="31.2" cy="396.6" r="28.8" fill="#6393F2"/>
<g filter="url(#filter6_d_55_186)">
<circle cx="31.2" cy="396.6" r="12" fill="#6393F2"/>
<circle cx="31.2" cy="396.6" r="14.4" stroke="white" stroke-width="4.8"/>
</g>
<defs>
<filter id="filter0_f_55_186" x="14.4" y="257.4" width="28.8" height="19.2001" filterUnits="userSpaceOnUse" color-interpolation-filters="sRGB">
<feFlood flood-opacity="0" result="BackgroundImageFix"/>
<feBlend mode="normal" in="SourceGraphic" in2="BackgroundImageFix" result="shape"/>
<feGaussianBlur stdDeviation="2.4" result="effect1_foregroundBlur_55_186"/>
</filter>
<filter id="filter1_f_55_186" x="259.2" y="257.4" width="28.8" height="19.2001" filterUnits="userSpaceOnUse" color-interpolation-filters="sRGB">
<feFlood flood-opacity="0" result="BackgroundImageFix"/>
<feBlend mode="normal" in="SourceGraphic" in2="BackgroundImageFix" result="shape"/>
<feGaussianBlur stdDeviation="2.4" result="effect1_foregroundBlur_55_186"/>
</filter>
<filter id="filter2_f_55_186" x="96" y="257.4" width="28.8" height="19.2001" filterUnits="userSpaceOnUse" color-interpolation-filters="sRGB">
<feFlood flood-opacity="0" result="BackgroundImageFix"/>
<feBlend mode="normal" in="SourceGraphic" in2="BackgroundImageFix" result="shape"/>
<feGaussianBlur stdDeviation="2.4" result="effect1_foregroundBlur_55_186"/>
</filter>
<filter id="filter3_f_55_186" x="177.6" y="257.4" width="28.8" height="19.2001" filterUnits="userSpaceOnUse" color-interpolation-filters="sRGB">
<feFlood flood-opacity="0" result="BackgroundImageFix"/>
<feBlend mode="normal" in="SourceGraphic" in2="BackgroundImageFix" result="shape"/>
<feGaussianBlur stdDeviation="2.4" result="effect1_foregroundBlur_55_186"/>
</filter>
<filter id="filter4_f_55_186" x="16.8" y="84.5999" width="31.2" height="21.6" filterUnits="userSpaceOnUse" color-interpolation-filters="sRGB">
<feFlood flood-opacity="0" result="BackgroundImageFix"/>
<feBlend mode="normal" in="SourceGraphic" in2="BackgroundImageFix" result="shape"/>
<feGaussianBlur stdDeviation="2.4" result="effect1_foregroundBlur_55_186"/>
</filter>
<filter id="filter5_f_55_186" x="105.6" y="84.5999" width="31.2" height="21.6" filterUnits="userSpaceOnUse" color-interpolation-filters="sRGB">
<feFlood flood-opacity="0" result="BackgroundImageFix"/>
<feBlend mode="normal" in="SourceGraphic" in2="BackgroundImageFix" result="shape"/>
<feGaussianBlur stdDeviation="2.4" result="effect1_foregroundBlur_55_186"/>
</filter>
<filter id="filter6_d_55_186" x="2.38419e-05" y="367.8" width="62.4" height="62.3996" filterUnits="userSpaceOnUse" color-interpolation-filters="sRGB">
<feFlood flood-opacity="0" result="BackgroundImageFix"/>
<feColorMatrix in="SourceAlpha" type="matrix" values="0 0 0 0 0 0 0 0 0 0 0 0 0 0 0 0 0 0 127 0" result="hardAlpha"/>
<feOffset dy="2.4"/>
<feGaussianBlur stdDeviation="7.2"/>
<feColorMatrix type="matrix" values="0 0 0 0 0 0 0 0 0 0 0 0 0 0 0 0 0 0 0.15 0"/>
<feBlend mode="normal" in2="BackgroundImageFix" result="effect1_dropShadow_55_186"/>
<feBlend mode="normal" in="SourceGraphic" in2="effect1_dropShadow_55_186" result="shape"/>
</filter>
<linearGradient id="paint0_linear_55_186" x1="28.8" y1="202.2" x2="28.8" y2="264.592" gradientUnits="userSpaceOnUse">
<stop stop-color="white"/>
<stop offset="1" stop-color="white" stop-opacity="0.35"/>
</linearGradient>
<linearGradient id="paint1_linear_55_186" x1="273.6" y1="202.2" x2="273.6" y2="264.593" gradientUnits="userSpaceOnUse">
<stop stop-color="white"/>
<stop offset="1" stop-color="white" stop-opacity="0.35"/>
</linearGradient>
<linearGradient id="paint2_linear_55_186" x1="110.4" y1="202.2" x2="110.4" y2="264.593" gradientUnits="userSpaceOnUse">
<stop stop-color="white"/>
<stop offset="1" stop-color="white" stop-opacity="0.35"/>
</linearGradient>
<linearGradient id="paint3_linear_55_186" x1="192" y1="202.2" x2="192" y2="264.593" gradientUnits="userSpaceOnUse">
<stop stop-color="white"/>
<stop offset="1" stop-color="white" stop-opacity="0.35"/>
</linearGradient>
<linearGradient id="paint4_linear_55_186" x1="32.4" y1="3" x2="32.4" y2="94.2" gradientUnits="userSpaceOnUse">
<stop stop-color="white"/>
<stop offset="1" stop-color="white" stop-opacity="0.35"/>
</linearGradient>
<linearGradient id="paint5_linear_55_186" x1="121.2" y1="3" x2="121.2" y2="94.2" gradientUnits="userSpaceOnUse">
<stop stop-color="white"/>
<stop offset="1" stop-color="white" stop-opacity="0.5"/>
</linearGradient>
<clipPath id="clip0_55_186">
<rect width="57.6" height="76.8" fill="white" transform="translate(0 197.4)"/>
</clipPath>
<clipPath id="clip1_55_186">
<rect width="57.6" height="76.8" fill="white" transform="translate(81.6 197.4)"/>
</clipPath>
<clipPath id="clip2_55_186">
<rect width="57.6" height="76.8" fill="white" transform="translate(163.2 197.4)"/>
</clipPath>
<clipPath id="clip3_55_186">
<rect width="64.8" height="103.2" fill="white" transform="translate(0 0.600098)"/>
</clipPath>
<clipPath id="clip4_55_186">
<rect width="64.8" height="103.2" fill="white" transform="translate(88.8 0.600098)"/>
</clipPath>
</defs>
</svg>
