<svg width="114" height="12" viewBox="0 0 114 12" fill="none" xmlns="http://www.w3.org/2000/svg">
<path d="M0.606934 6.93213C0.692871 8.30713 1.84766 9.18799 3.56641 9.18799C5.40332 9.18799 6.55273 8.26416 6.55273 6.79785C6.55273 5.6377 5.89746 4.99854 4.30762 4.61719L3.45361 4.40771C2.44385 4.16064 2.03564 3.83838 2.03564 3.27441C2.03564 2.54932 2.66943 2.08203 3.62012 2.08203C4.52246 2.08203 5.14551 2.5332 5.2583 3.26904H6.4292C6.35938 1.97461 5.20996 1.06152 3.63623 1.06152C1.94434 1.06152 0.816406 1.97461 0.816406 3.33887C0.816406 4.4668 1.45557 5.13281 2.85742 5.47119L3.85645 5.71289C4.88232 5.95996 5.3335 6.33594 5.3335 6.94287C5.3335 7.65186 4.62451 8.16211 3.65771 8.16211C2.62109 8.16211 1.90137 7.68408 1.79932 6.93213H0.606934ZM11.0376 3.06494C10.2427 3.06494 9.55518 3.46777 9.20068 4.13379H9.11475V3.16699H8.00293V10.9443H9.15771V8.11914H9.24902C9.55518 8.73682 10.2158 9.09668 11.0483 9.09668C12.5254 9.09668 13.4653 7.92578 13.4653 6.0835C13.4653 4.23047 12.5254 3.06494 11.0376 3.06494ZM10.71 8.1084C9.74316 8.1084 9.13623 7.32959 9.13623 6.0835C9.13623 4.83203 9.74316 4.05322 10.7153 4.05322C11.6929 4.05322 12.2783 4.81592 12.2783 6.0835C12.2783 7.35107 11.6929 8.1084 10.71 8.1084ZM17.3271 9.11279C19.0352 9.11279 20.0825 7.96875 20.0825 6.0835C20.0825 4.19824 19.0298 3.0542 17.3271 3.0542C15.6191 3.0542 14.5664 4.20361 14.5664 6.0835C14.5664 7.96875 15.6138 9.11279 17.3271 9.11279ZM17.3271 8.12988C16.3228 8.12988 15.7588 7.3833 15.7588 6.0835C15.7588 4.78369 16.3228 4.03174 17.3271 4.03174C18.3262 4.03174 18.8955 4.78369 18.8955 6.0835C18.8955 7.37793 18.3262 8.12988 17.3271 8.12988ZM21.8818 1.69531V3.18311H20.9526V4.10693H21.8818V7.46387C21.8818 8.58643 22.3921 9.0376 23.6758 9.0376C23.9014 9.0376 24.1162 9.01074 24.3042 8.97852V8.06006C24.1431 8.07617 24.041 8.08691 23.8638 8.08691C23.2891 8.08691 23.0366 7.81299 23.0366 7.18457V4.10693H24.3042V3.18311H23.0366V1.69531H21.8818ZM25.7168 9H26.8716V0.878906H25.7168V9ZM29.2026 2.125C29.6055 2.125 29.9331 1.79736 29.9331 1.3999C29.9331 0.99707 29.6055 0.669434 29.2026 0.669434C28.7998 0.669434 28.4722 0.99707 28.4722 1.3999C28.4722 1.79736 28.7998 2.125 29.2026 2.125ZM28.6279 9H29.7773V3.16699H28.6279V9ZM33.9399 11.229C35.5942 11.229 36.6416 10.3857 36.6416 9.05908V3.16699H35.5352V4.09619H35.4438C35.1162 3.4624 34.4126 3.06494 33.6069 3.06494C32.1138 3.06494 31.1792 4.24121 31.1792 6.0083C31.1792 7.75928 32.103 8.91406 33.5962 8.91406C34.4019 8.91406 35.0464 8.56494 35.4009 7.93115H35.4868V9.05371C35.4868 9.84326 34.9175 10.3159 33.9561 10.3159C33.1772 10.3159 32.6885 10.0366 32.5918 9.59619H31.4102C31.5337 10.5791 32.479 11.229 33.9399 11.229ZM33.9238 7.95801C32.9302 7.95801 32.3716 7.20068 32.3716 6.0083C32.3716 4.81592 32.9302 4.05322 33.9238 4.05322C34.9067 4.05322 35.5083 4.81592 35.5083 6.0083C35.5083 7.20068 34.9121 7.95801 33.9238 7.95801ZM38.3711 9H39.5259V5.58398C39.5259 4.6709 40.0522 4.06396 40.9976 4.06396C41.814 4.06396 42.249 4.54199 42.249 5.50342V9H43.4038V5.22949C43.4038 3.84912 42.6357 3.05957 41.3896 3.05957C40.5088 3.05957 39.8911 3.44629 39.6064 4.09619H39.5151V0.878906H38.3711V9ZM45.4395 1.69531V3.18311H44.5103V4.10693H45.4395V7.46387C45.4395 8.58643 45.9497 9.0376 47.2334 9.0376C47.459 9.0376 47.6738 9.01074 47.8618 8.97852V8.06006C47.7007 8.07617 47.5986 8.08691 47.4214 8.08691C46.8467 8.08691 46.5942 7.81299 46.5942 7.18457V4.10693H47.8618V3.18311H46.5942V1.69531H45.4395ZM52.3628 1.24951V9H53.5659V6.35205H55.3599C56.8799 6.35205 57.9541 5.31006 57.9541 3.81689C57.9541 2.2915 56.9121 1.24951 55.3975 1.24951H52.3628ZM53.5659 2.26465H55.0806C56.1387 2.26465 56.7241 2.8125 56.7241 3.81689C56.7241 4.78906 56.1172 5.34229 55.0806 5.34229H53.5659V2.26465ZM59.9683 2.125C60.3711 2.125 60.6987 1.79736 60.6987 1.3999C60.6987 0.99707 60.3711 0.669434 59.9683 0.669434C59.5654 0.669434 59.2378 0.99707 59.2378 1.3999C59.2378 1.79736 59.5654 2.125 59.9683 2.125ZM59.3936 9H60.543V3.16699H59.3936V9ZM62.2402 9H63.395V5.57861C63.395 4.63867 63.9375 4.05859 64.7915 4.05859C65.6455 4.05859 66.0537 4.53125 66.0537 5.49805V9H67.2085V5.22412C67.2085 3.83301 66.4888 3.0542 65.1836 3.0542C64.3027 3.0542 63.7227 3.44629 63.438 4.09082H63.3521V3.16699H62.2402V9ZM79.8198 9V1.24951H78.4126L75.9419 7.31348H75.8506L73.3853 1.24951H71.978V9H73.0952V3.32275H73.1704L75.4424 8.86035H76.3555L78.6274 3.32275H78.7026V9H79.8198ZM83.2466 9.09668C84.0146 9.09668 84.6538 8.76367 85.0029 8.17285H85.0942V9H86.2061V5.00928C86.2061 3.78467 85.3789 3.0542 83.9126 3.0542C82.5859 3.0542 81.6406 3.69336 81.5225 4.67627H82.6396C82.7686 4.25195 83.2144 4.01025 83.8589 4.01025C84.6484 4.01025 85.0566 4.37012 85.0566 5.00928V5.51953L83.4722 5.61621C82.0811 5.70215 81.2969 6.30908 81.2969 7.35645C81.2969 8.41992 82.1187 9.09668 83.2466 9.09668ZM83.542 8.16748C82.9136 8.16748 82.457 7.85059 82.457 7.30811C82.457 6.77637 82.8223 6.4917 83.6279 6.43799L85.0566 6.34131V6.84619C85.0566 7.59814 84.4121 8.16748 83.542 8.16748ZM87.8496 9H89.0044V5.51416C89.0044 4.69238 89.6221 4.12842 90.4976 4.12842C90.7017 4.12842 91.0454 4.16602 91.1421 4.19287V3.10791C91.0186 3.08105 90.7983 3.06494 90.6265 3.06494C89.8638 3.06494 89.2139 3.47852 89.0474 4.05322H88.9614V3.16699H87.8496V9ZM93.5537 5.62695H93.4624V0.878906H92.3076V9H93.4624V6.87842L93.9727 6.38965L95.9814 9H97.3994L94.832 5.66455L97.2383 3.16699H95.874L93.5537 5.62695ZM101.997 7.43701C101.782 7.90967 101.304 8.16748 100.606 8.16748C99.6821 8.16748 99.0859 7.50146 99.0483 6.44336V6.38965H103.179V5.99219C103.179 4.16602 102.196 3.0542 100.568 3.0542C98.9194 3.0542 97.8721 4.24121 97.8721 6.09424C97.8721 7.95801 98.8979 9.11279 100.574 9.11279C101.911 9.11279 102.856 8.46826 103.109 7.43701H101.997ZM100.563 3.99414C101.417 3.99414 101.976 4.61182 102.002 5.55713H99.0483C99.1128 4.61719 99.709 3.99414 100.563 3.99414ZM104.564 9H105.719V5.51416C105.719 4.69238 106.337 4.12842 107.212 4.12842C107.417 4.12842 107.76 4.16602 107.857 4.19287V3.10791C107.733 3.08105 107.513 3.06494 107.341 3.06494C106.579 3.06494 105.929 3.47852 105.762 4.05322H105.676V3.16699H104.564V9ZM108.716 4.7998C108.716 5.66455 109.232 6.15869 110.344 6.4165L111.364 6.6582C111.95 6.79785 112.224 7.03418 112.224 7.39941C112.224 7.87744 111.713 8.21045 110.994 8.21045C110.295 8.21045 109.866 7.92578 109.721 7.46924H108.566C108.668 8.48438 109.576 9.11279 110.967 9.11279C112.363 9.11279 113.389 8.37695 113.389 7.29199C113.389 6.44336 112.868 5.96533 111.756 5.70752L110.784 5.48193C110.15 5.33154 109.855 5.10596 109.855 4.74609C109.855 4.27344 110.344 3.95654 110.988 3.95654C111.644 3.95654 112.062 4.24121 112.17 4.67627H113.276C113.164 3.6665 112.304 3.0542 110.988 3.0542C109.667 3.0542 108.716 3.78467 108.716 4.7998Z" fill="#8279E3"/>
</svg>
